PathFileType	4	(X/Y/Z)	path1_11_0-607.trc
DataRate	CameraRate	NumFrames	NumMarkers	Units	OrigDataRate	OrigDataStartFrame	OrigNumFrames
30	30	7	22	m	30	75	607
Frame#	Time	Hip			RHip			RKnee			RAnkle			RBigToe			RSmallToe			RHeel			LHip			LKnee			LAnkle			LBigToe			LSmallToe			LHeel			Neck			Head			Nose			RShoulder			RElbow			RWrist			LShoulder			LElbow			LWrist		
		X1	Y1	Z1	X2	Y2	Z2	X3	Y3	Z3	X4	Y4	Z4	X5	Y5	Z5	X6	Y6	Z6	X7	Y7	Z7	X8	Y8	Z8	X9	Y9	Z9	X10	Y10	Z10	X11	Y11	Z11	X12	Y12	Z12	X13	Y13	Z13	X14	Y14	Z14	X15	Y15	Z15	X16	Y16	Z16	X17	Y17	Z17	X18	Y18	Z18	X19	Y19	Z19	X20	Y20	Z20	X21	Y21	Z21	X22	Y22	Z22
76	2.533333333333333	2.7634252552657106	0.8357700028429202	0.6285452825020265	2.7666367333257087	0.8057681462500449	0.5478395684039088	2.747529575005004	0.4620051395568528	0.5458320841063314	2.815905453584719	0.10279140192102854	0.5807615985678872	2.6177120176658297	0.026841552242420626	0.5593071130271747	2.6566491257344813	0.02194248827921064	0.4993629382308591	2.86180854436944	0.03849404152362895	0.5602438940444314	2.754462562078646	0.803493394807834	0.7130494183854889	2.760295597899553	0.4467158800833979	0.6919738769908482	2.7941741354428267	0.11300137273911322	0.686157962842491	2.644206514226818	0.020118270820572503	0.6924294055564049	2.674189790633408	0.026965723784191948	0.7492104520502663	2.863068126791097	0.04010675815059321	0.7042738837276269	2.7313117018918174	1.4673951035189938	0.6446918033856635	2.6518987885473604	1.6920363180366593	0.6299100377614621	2.5984467402556564	1.604056698102256	0.6042802548389756	2.7828883482971394	1.3599913196908053	0.4766225984692102	2.787734371887953	1.0744218548259303	0.4176208453509923	2.778522176356886	0.8446396902394507	0.42373343777881106	2.724926160857123	1.3459602474150076	0.8007927751864409	2.807650495175621	1.050185561094241	0.7928253797891309	2.8040150040989347	0.8278269347944663	0.8063050301786495
77	2.566666666666667	2.764380639069409	0.8354394190565839	0.6284502633301106	2.7665508309651274	0.8067486022743795	0.5470315847466253	2.751548757578635	0.46045660530237975	0.5505391235867306	2.816332401215456	0.10231078197831603	0.5812332674554442	2.6182543414298443	0.026558005197959603	0.559590876193995	2.656338582658537	0.02190094811924842	0.4998503220396603	2.8611619270635225	0.037913992814541955	0.5598437914512906	2.7550025944186607	0.8043583533528718	0.7122917982676437	2.764089335286262	0.44448027810154034	0.6897093646312975	2.795742003631975	0.11205823121336848	0.6869007629434288	2.6441523957540114	0.020193991578446226	0.6918370273805622	2.6743466422048656	0.026453733592371655	0.7485947540274693	2.8626979939937516	0.03976197321888421	0.7035293248028799	2.7313166054462714	1.4673718380758116	0.6445763285623274	2.6506290026663097	1.6915283397955254	0.6273439322337818	2.598650775887946	1.6041358314543155	0.6039922524506937	2.782300580749494	1.360137321159439	0.4760392946546064	2.7879507981345037	1.074375963907108	0.4170395491792181	2.7785682524745936	0.8448114646164044	0.4234822335245562	2.7285964745736804	1.3459884386590035	0.7968688611685025	2.8076440506717604	1.0499088008434798	0.7920897163848379	2.8042246366965995	0.8278191776914099	0.8062693337026284
78	2.6	2.765284325812065	0.8352303682825832	0.6284103082820235	2.7667325948142567	0.8074778464122414	0.546383211432732	2.7568446240136018	0.45840407185942167	0.5567546771827899	2.8168495176498465	0.10176405862265017	0.5817088726863733	2.618640747800735	0.026269834039303736	0.5598798361348256	2.656200619300685	0.021635924496461217	0.5003641566399315	2.861176371423997	0.037240114033457145	0.5594154224353131	2.7552710390210753	0.8050606628952468	0.7115881348213966	2.7666788652390455	0.4430257610570624	0.6880421972539182	2.796349005095714	0.11182922308768806	0.6867976711465541	2.643904841492239	0.020417102989129764	0.6912724073617708	2.674399305794081	0.02619836137806193	0.7483783161381657	2.8623762799499013	0.0395637618078947	0.702871586723476	2.731402939448518	1.4673059437020393	0.6443970943055721	2.6499627265082983	1.691477989801902	0.6241147710429867	2.5989124948800746	1.6043367134214463	0.6032835961126415	2.7818406989762097	1.360228896402231	0.4755937949106411	2.7879345402087474	1.0744576334464457	0.4162744150347267	2.7786085117536867	0.8450851764387378	0.4232479031660203	2.7311684468236495	1.3459690047749453	0.7940733889718523	2.80765268715238	1.0496260546593907	0.7914232355616202	2.804148948721485	0.8284281944480391	0.8070370829619823
79	2.6333333333333333	2.765841842638497	0.835236636423534	0.6284285333729037	2.767078926241078	0.8077543040819939	0.5460191294206452	2.761611977473713	0.456504181673379	0.5623979961002888	2.8171341645396795	0.10128138259297591	0.5819417808610976	2.618747623203281	0.026065646423622742	0.5601401274942182	2.6562782230508746	0.02122496676424835	0.500786051780901	2.8619403184018584	0.036613532232583325	0.5587696215945839	2.7551385158984547	0.8053426462973133	0.7110541811434045	2.76752081444177	0.44267968886321224	0.6872541799964347	2.795440803746245	0.11252061260336456	0.6855327772599289	2.6433613683735535	0.020825353100511566	0.6906507018040824	2.6741270039608893	0.026143080808544786	0.7482888221641435	2.8621168721791355	0.039555100357742214	0.7024788095395493	2.7315437971940635	1.4672472863477424	0.644090330495303	2.6511326374804876	1.692616881928463	0.6206864293515172	2.599182107860927	1.6046542205794554	0.6023181480711046	2.7816745315449873	1.3601938897302086	0.47535890101245915	2.7876265235970132	1.0746557061738349	0.41543491241536257	2.7786192089383075	0.845386733718037	0.42308082371766287	2.7312010088738985	1.3458249988999071	0.7939168179507851	2.8076738958678873	1.0494803707777502	0.7909976576329397	2.8038484016802676	0.8293841628448595	0.8081141239321689
80	2.6666666666666665	2.765912879563219	0.835447487786805	0.628468159864401	2.7674476337486813	0.8075330797851821	0.5459123217217708	2.7639124824492427	0.45542512150913944	0.5652039533485955	2.816889104413806	0.10106308716992497	0.58165482986434	2.6186014194568985	0.025962661732132606	0.5603418608585943	2.6565160226488564	0.020809028659692017	0.5010286637469784	2.8630199710059983	0.03616929121418414	0.5581672042390545	2.7546960989468396	0.8050820082313794	0.7107226799400965	2.7669531587399536	0.44314784119910205	0.687142511780962	2.7934929976556506	0.11378652411926533	0.6836774880877795	2.642374998289688	0.021379615166262453	0.6897741429126625	2.67349132472262	0.026060941754676346	0.7479211612931689	2.8618949528150623	0.039683176448724315	0.7023148907568749	2.7317086905511694	1.4672364958691362	0.6436291249377646	2.6547529053776193	1.6952006651633147	0.6175229968587703	2.5994081144741212	1.605028029012113	0.6014139073603213	2.7818657950006815	1.3600380279187556	0.4752795067066815	2.7871823958084962	1.0748937284527078	0.4147401552508423	2.778575439403963	0.8456204451584531	0.42297581143436197	2.7286221497877867	1.3455587438867054	0.7964135846923819	2.807610281311073	1.0496339579531593	0.7910145287999689	2.8032685123704013	0.8303920143002393	0.8091408394134351
81	2.7	2.765596989598317	0.8357511442253912	0.6284800570241235	2.767778433539383	0.8068584298190746	0.5459353598857046	2.763099925751919	0.4553884150160618	0.5643124754085994	2.816047465464892	0.10129152338921937	0.5806136561865574	2.6183710538506784	0.025891725346150224	0.5604615721722123	2.6568120168327045	0.020480635052106226	0.5010743827115981	2.863865530147918	0.03597904055181464	0.5580562679284312	2.7542074574004975	0.8042778588043765	0.710524400915578	2.765602532730388	0.4439556744916948	0.6873865566918126	2.791603432754992	0.11503288271067522	0.6822318461582091	2.640952938297078	0.021956833117005727	0.6885534162982972	2.672670655256287	0.025788989371039198	0.7470996333672272	2.8616998912370115	0.039861064833654196	0.702136655925893	2.731870152444189	1.4672752767278208	0.6430695483201327	2.6604349923590473	1.6987026443914817	0.6156507423105614	2.5995859603059275	1.6053622653516892	0.600860085648984	2.782328789020331	1.3598186134709471	0.47520028952238125	2.7869991522867252	1.0750345618116697	0.41461488450785416	2.7785015872497234	0.8457230601370742	0.42289323769074055	2.72479904545122	1.3452622532566736	0.8000508274054904	2.807395929284761	1.050182545784236	0.7916463539650637	2.8025211242583934	0.8312520824105663	0.8099631131313548
82	2.7333333333333334	2.7650696400687	0.8360268674181217	0.6284289854011514	2.768132193094865	0.8057534780547462	0.5460407077943377	2.759865278916542	0.4561829254080963	0.5603906841761723	2.8148562920631264	0.1019691928400243	0.5788909202248588	2.618209536031311	0.02578714392169763	0.5604985359900351	2.6570965283400056	0.020251792821306746	0.5009719378483126	2.8642493536834897	0.035985037760539615	0.558817371086035	2.7539060202271832	0.8030014283668886	0.7103743914069077	2.7638719660381823	0.44481345567249325	0.6878724293721192	2.7907779598156086	0.11580044469932371	0.6819956343520698	2.6394057631614642	0.022406573927736442	0.6872098253187578	2.671867634354741	0.025377199762786688	0.7459913668823581	2.8615713442024213	0.039976676730221185	0.7016826921373688	2.732000776396803	1.4673477273851736	0.6425180422585111	2.666594662976061	1.701786241730133	0.6165492787187895	2.599748596948107	1.6055739638828848	0.6007852608496234	2.782929329538899	1.3595752738708775	0.4750168661944014	2.787693414980352	1.074906086142382	0.41575430160779014	2.77845787128472	0.8456625868184112	0.4227793062291744	2.7212342316241394	1.3450279884752576	0.8032720463196563	2.8070346376610678	1.0511316838235265	0.7929698533559544	2.801791875602574	0.831793835075521	0.8104045274765747
